<?xml version="1.0" encoding="UTF-8" standalone="no"?>
<svg width="318.911mm" height="25.4mm"
 xmlns="http://www.w3.org/2000/svg" xmlns:xlink="http://www.w3.org/1999/xlink"  version="1.2" baseProfile="tiny">
<title>Qt SVG Document</title>
<desc>Generated with Qt</desc>
<defs>
</defs>
<g fill="none" stroke="black" stroke-width="1" fill-rule="evenodd" stroke-linecap="square" stroke-linejoin="bevel" >

<g fill="none" stroke="#000000" stroke-opacity="1" stroke-width="1" stroke-linecap="square" stroke-linejoin="bevel" transform="matrix(1,0,0,1,0,0)"
font-family="Ubuntu Sans" font-size="11" font-weight="400" font-style="normal" 
>
</g>

<g fill="none" stroke="#000000" stroke-opacity="1" stroke-width="1" stroke-linecap="square" stroke-linejoin="bevel" transform="matrix(1,0,0,1,0,0)"
font-family="Ubuntu Sans" font-size="11" font-weight="400" font-style="normal" 
>
</g>

<g fill="none" stroke="#000000" stroke-opacity="1" stroke-width="1" stroke-linecap="square" stroke-linejoin="bevel" transform="matrix(2,0,0,2,6.78565e-17,72)"
font-family="Ubuntu Sans" font-size="11" font-weight="400" font-style="normal" 
>
</g>

<g fill="#ffffff" fill-opacity="1" stroke="none" transform="matrix(2,0,0,2,6.78565e-17,72)"
font-family="Ubuntu Sans" font-size="11" font-weight="400" font-style="normal" 
>
<rect x="-3.39283e-17" y="-36" width="451.777" height="36"/>
</g>

<g fill="none" stroke="#000000" stroke-opacity="1" stroke-width="1" stroke-linecap="square" stroke-linejoin="bevel" transform="matrix(2,0,0,2,6.78565e-17,72)"
font-family="Ubuntu Sans" font-size="11" font-weight="400" font-style="normal" 
>
</g>

<g fill="none" stroke="#000000" stroke-opacity="1" stroke-width="1" stroke-linecap="square" stroke-linejoin="bevel" transform="matrix(2,0,0,2,6.78565e-17,72)"
font-family="Ubuntu Sans" font-size="11" font-weight="400" font-style="normal" 
>
</g>

<g fill="none" stroke="#000000" stroke-opacity="1" stroke-width="1" stroke-linecap="square" stroke-linejoin="bevel" transform="matrix(2,0,0,2,6.78565e-17,72)"
font-family="Ubuntu Sans" font-size="11" font-weight="400" font-style="normal" 
>
</g>

<g fill="none" stroke="#000000" stroke-opacity="1" stroke-width="1" stroke-linecap="square" stroke-linejoin="bevel" transform="matrix(2,0,0,2,6.78565e-17,72)"
font-family="Ubuntu Sans" font-size="11" font-weight="400" font-style="normal" 
>
</g>

<g fill="none" stroke="#000000" stroke-opacity="1" stroke-width="1" stroke-linecap="square" stroke-linejoin="round" transform="matrix(2,0,0,2,6.78565e-17,72)"
font-family="Ubuntu Sans" font-size="11" font-weight="400" font-style="normal" 
>
<ellipse cx="102.69" cy="-18" rx="102.19" ry="17.5"/>
</g>

<g fill="none" stroke="#000000" stroke-opacity="1" stroke-width="1" stroke-linecap="square" stroke-linejoin="bevel" transform="matrix(2,0,0,2,6.78565e-17,72)"
font-family="Ubuntu Sans" font-size="11" font-weight="400" font-style="normal" 
>
</g>

<g fill="none" stroke="#000000" stroke-opacity="1" stroke-width="1" stroke-linecap="square" stroke-linejoin="bevel" transform="matrix(2,0,0,2,99.5831,20)"
font-family="Ubuntu Sans" font-size="11" font-weight="400" font-style="normal" 
>
</g>

<g fill="none" stroke="#000000" stroke-opacity="1" stroke-width="1" stroke-linecap="square" stroke-linejoin="bevel" transform="matrix(2,0,0,2,99.5831,20)"
font-family="sans" font-size="11" font-weight="100" font-style="normal" 
>
</g>

<g fill="#000000" fill-opacity="1" stroke="#000000" stroke-opacity="1" stroke-width="1" stroke-linecap="square" stroke-linejoin="round" transform="matrix(2,0,0,2,99.5831,20)"
font-family="sans" font-size="11" font-weight="100" font-style="normal" 
>
<path vector-effect="none" fill-rule="nonzero" d="M3.98438,4.14063 L1.0625,12 L0.109375,12 L3.03125,4.14063 L3.98438,4.14063 M5.96875,8 C5.96875,8.125 5.96354,8.28125 5.95313,8.46875 C5.94271,8.65625 5.93229,8.82292 5.92188,8.96875 L5.96875,8.96875 C6.01042,8.90625 6.07552,8.82031 6.16406,8.71094 C6.2526,8.60156 6.34375,8.48958 6.4375,8.375 C6.53125,8.26042 6.60938,8.16667 6.67188,8.09375 L8.5625,6.10938 L9.6875,6.10938 L7.29688,8.625 L9.85938,12 L8.6875,12 L6.64063,9.25 L5.96875,9.82813 L5.96875,12 L5.01563,12 L5.01563,3.64063 L5.96875,3.64063 L5.96875,8 M16,9.04688 C16,10.0156 15.7526,10.7682 15.2578,11.3047 C14.763,11.8411 14.0938,12.1094 13.25,12.1094 C12.7292,12.1094 12.2656,11.9896 11.8594,11.75 C11.4531,11.5104 11.1328,11.1615 10.8984,10.7031 C10.6641,10.2448 10.5469,9.69271 10.5469,9.04688 C10.5469,8.06771 10.7917,7.3151 11.2813,6.78906 C11.7708,6.26302 12.4375,6 13.2813,6 C13.8125,6 14.2839,6.11719 14.6953,6.35156 C15.1068,6.58594 15.4271,6.92969 15.6563,7.38281 C15.8854,7.83594 16,8.39063 16,9.04688 M11.5469,9.04688 C11.5469,9.73438 11.6849,10.2839 11.9609,10.6953 C12.237,11.1068 12.6719,11.3125 13.2656,11.3125 C13.8594,11.3125 14.2969,11.1068 14.5781,10.6953 C14.8594,10.2839 15,9.73438 15,9.04688 C15,8.34896 14.8594,7.80208 14.5781,7.40625 C14.2969,7.01042 13.8594,6.8125 13.2656,6.8125 C12.6615,6.8125 12.224,7.01042 11.9531,7.40625 C11.6823,7.80208 11.5469,8.34896 11.5469,9.04688 M18.4844,5.67188 C18.4844,5.92188 18.4792,6.15625 18.4688,6.375 C18.4583,6.59375 18.4427,6.76563 18.4219,6.89063 L18.4844,6.89063 C18.651,6.64063 18.8802,6.42969 19.1719,6.25781 C19.4635,6.08594 19.8438,6 20.3125,6 C21.0417,6 21.6276,6.25521 22.0703,6.76563 C22.513,7.27604 22.7344,8.03646 22.7344,9.04688 C22.7344,10.0573 22.5104,10.8203 22.0625,11.3359 C21.6146,11.8516 21.0313,12.1094 20.3125,12.1094 C19.8438,12.1094 19.4635,12.026 19.1719,11.8594 C18.8802,11.6927 18.651,11.4896 18.4844,11.25 L18.4063,11.25 L18.2031,12 L17.5156,12 L17.5156,3.64063 L18.4844,3.64063 L18.4844,5.67188 M20.1406,6.8125 C19.5156,6.8125 19.0833,6.99219 18.8438,7.35156 C18.6042,7.71094 18.4844,8.26563 18.4844,9.01563 L18.4844,9.0625 C18.4844,9.79167 18.6042,10.349 18.8438,10.7344 C19.0833,11.1198 19.526,11.3125 20.1719,11.3125 C20.6927,11.3125 21.0833,11.1172 21.3438,10.7266 C21.6042,10.3359 21.7344,9.77604 21.7344,9.04688 C21.7344,7.55729 21.2031,6.8125 20.1406,6.8125 M29.1875,6.10938 L29.1875,12 L28.4063,12 L28.25,11.2188 L28.2188,11.2188 C28.0208,11.5313 27.7552,11.7578 27.4219,11.8984 C27.0885,12.0391 26.7292,12.1094 26.3438,12.1094 C25.6354,12.1094 25.1016,11.9401 24.7422,11.6016 C24.3828,11.263 24.2031,10.7188 24.2031,9.96875 L24.2031,6.10938 L25.1719,6.10938 L25.1719,9.90625 C25.1719,10.8438 25.6094,11.3125 26.4844,11.3125 C27.1406,11.3125 27.5938,11.1276 27.8438,10.7578 C28.0938,10.388 28.2188,9.85938 28.2188,9.17188 L28.2188,6.10938 L29.1875,6.10938 M32.0156,8 C32.0156,8.125 32.0104,8.28125 32,8.46875 C31.9896,8.65625 31.9792,8.82292 31.9688,8.96875 L32.0156,8.96875 C32.0573,8.90625 32.1224,8.82031 32.2109,8.71094 C32.2995,8.60156 32.3906,8.48958 32.4844,8.375 C32.5781,8.26042 32.6563,8.16667 32.7188,8.09375 L34.6094,6.10938 L35.7344,6.10938 L33.3438,8.625 L35.9063,12 L34.7344,12 L32.6875,9.25 L32.0156,9.82813 L32.0156,12 L31.0625,12 L31.0625,3.64063 L32.0156,3.64063 L32.0156,8 M37.4219,3.89063 C37.5677,3.89063 37.6953,3.9401 37.8047,4.03906 C37.9141,4.13802 37.9688,4.29688 37.9688,4.51563 C37.9688,4.71354 37.9141,4.86458 37.8047,4.96875 C37.6953,5.07292 37.5677,5.125 37.4219,5.125 C37.2552,5.125 37.1172,5.07292 37.0078,4.96875 C36.8984,4.86458 36.8438,4.71354 36.8438,4.51563 C36.8438,4.29688 36.8984,4.13802 37.0078,4.03906 C37.1172,3.9401 37.2552,3.89063 37.4219,3.89063 M37.8906,6.10938 L37.8906,12 L36.9219,12 L36.9219,6.10938 L37.8906,6.10938 M43.7188,13.6875 L38.7969,13.6875 L38.7969,12.9844 L43.7188,12.9844 L43.7188,13.6875 M45.5781,8 C45.5781,8.125 45.5729,8.28125 45.5625,8.46875 C45.5521,8.65625 45.5417,8.82292 45.5313,8.96875 L45.5781,8.96875 C45.6198,8.90625 45.6849,8.82031 45.7734,8.71094 C45.862,8.60156 45.9531,8.48958 46.0469,8.375 C46.1406,8.26042 46.2188,8.16667 46.2813,8.09375 L48.1719,6.10938 L49.2969,6.10938 L46.9063,8.625 L49.4688,12 L48.2969,12 L46.25,9.25 L45.5781,9.82813 L45.5781,12 L44.625,12 L44.625,3.64063 L45.5781,3.64063 L45.5781,8 M52.7656,6 C53.2656,6 53.6979,6.10938 54.0625,6.32813 C54.4271,6.54688 54.7057,6.85677 54.8984,7.25781 C55.0911,7.65885 55.1875,8.125 55.1875,8.65625 L55.1875,9.23438 L51.1563,9.23438 C51.1667,9.90104 51.3359,10.4089 51.6641,10.7578 C51.9922,11.1068 52.4479,11.2813 53.0313,11.2813 C53.4063,11.2813 53.7396,11.2474 54.0313,11.1797 C54.3229,11.112 54.6198,11.0104 54.9219,10.875 L54.9219,11.7188 C54.6198,11.8542 54.3229,11.9531 54.0313,12.0156 C53.7396,12.0781 53.3906,12.1094 52.9844,12.1094 C52.4323,12.1094 51.9401,11.9948 51.5078,11.7656 C51.0755,11.5365 50.7422,11.1979 50.5078,10.75 C50.2734,10.3021 50.1563,9.75 50.1563,9.09375 C50.1563,8.44792 50.263,7.89323 50.4766,7.42969 C50.6901,6.96615 50.9948,6.61198 51.3906,6.36719 C51.7865,6.1224 52.2448,6 52.7656,6 M52.75,6.78125 C52.2917,6.78125 51.9271,6.92969 51.6563,7.22656 C51.3854,7.52344 51.224,7.9375 51.1719,8.46875 L54.1719,8.46875 C54.1719,7.96875 54.0573,7.5625 53.8281,7.25 C53.599,6.9375 53.2396,6.78125 52.75,6.78125 M55.5469,6.10938 L56.5781,6.10938 L57.8594,9.45313 C57.9635,9.75521 58.0599,10.0391 58.1484,10.3047 C58.237,10.5703 58.3021,10.8229 58.3438,11.0625 L58.3906,11.0625 C58.4323,10.8854 58.5026,10.6484 58.6016,10.3516 C58.7005,10.0547 58.7969,9.75521 58.8906,9.45313 L60.0938,6.10938 L61.1406,6.10938 L58.5938,12.8125 C58.3958,13.375 58.1328,13.8203 57.8047,14.1484 C57.4766,14.4766 57.026,14.6406 56.4531,14.6406 C56.276,14.6406 56.1224,14.6302 55.9922,14.6094 C55.862,14.5885 55.75,14.5677 55.6563,14.5469 L55.6563,13.7813 C55.7292,13.7917 55.8229,13.8047 55.9375,13.8203 C56.0521,13.8359 56.1719,13.8438 56.2969,13.8438 C56.6406,13.8438 56.9167,13.75 57.125,13.5625 C57.3333,13.375 57.4948,13.1198 57.6094,12.7969 L57.9219,12.0156 L55.5469,6.10938 M67.2031,9.04688 C67.2031,10.0156 66.9557,10.7682 66.4609,11.3047 C65.9661,11.8411 65.2969,12.1094 64.4531,12.1094 C63.9323,12.1094 63.4688,11.9896 63.0625,11.75 C62.6563,11.5104 62.3359,11.1615 62.1016,10.7031 C61.8672,10.2448 61.75,9.69271 61.75,9.04688 C61.75,8.06771 61.9948,7.3151 62.4844,6.78906 C62.974,6.26302 63.6406,6 64.4844,6 C65.0156,6 65.487,6.11719 65.8984,6.35156 C66.3099,6.58594 66.6302,6.92969 66.8594,7.38281 C67.0885,7.83594 67.2031,8.39063 67.2031,9.04688 M62.75,9.04688 C62.75,9.73438 62.888,10.2839 63.1641,10.6953 C63.4401,11.1068 63.875,11.3125 64.4688,11.3125 C65.0625,11.3125 65.5,11.1068 65.7813,10.6953 C66.0625,10.2839 66.2031,9.73438 66.2031,9.04688 C66.2031,8.34896 66.0625,7.80208 65.7813,7.40625 C65.5,7.01042 65.0625,6.8125 64.4688,6.8125 C63.8646,6.8125 63.4271,7.01042 63.1563,7.40625 C62.8854,7.80208 62.75,8.34896 62.75,9.04688 M71.5156,6 C72.2448,6 72.8307,6.2526 73.2734,6.75781 C73.7161,7.26302 73.9375,8.02604 73.9375,9.04688 C73.9375,10.0469 73.7161,10.8073 73.2734,11.3281 C72.8307,11.849 72.2448,12.1094 71.5156,12.1094 C71.0573,12.1094 70.6797,12.0234 70.3828,11.8516 C70.0859,11.6797 69.8542,11.4792 69.6875,11.25 L69.625,11.25 C69.6354,11.375 69.6484,11.5339 69.6641,11.7266 C69.6797,11.9193 69.6875,12.0833 69.6875,12.2188 L69.6875,14.6406 L68.7188,14.6406 L68.7188,6.10938 L69.5156,6.10938 L69.6406,6.90625 L69.6875,6.90625 C69.8646,6.64583 70.0964,6.42969 70.3828,6.25781 C70.6693,6.08594 71.0469,6 71.5156,6 M71.3438,6.8125 C70.7396,6.8125 70.3151,6.97917 70.0703,7.3125 C69.8255,7.64583 69.6979,8.16146 69.6875,8.85938 L69.6875,9.04688 C69.6875,9.76563 69.8073,10.3229 70.0469,10.7188 C70.2865,11.1146 70.7292,11.3125 71.375,11.3125 C71.7292,11.3125 72.0208,11.2135 72.25,11.0156 C72.4792,10.8177 72.651,10.5469 72.7656,10.2031 C72.8802,9.85938 72.9375,9.46875 72.9375,9.03125 C72.9375,8.35417 72.8073,7.8151 72.5469,7.41406 C72.2865,7.01302 71.8854,6.8125 71.3438,6.8125 M79.4375,13.6875 L74.5156,13.6875 L74.5156,12.9844 L79.4375,12.9844 L79.4375,13.6875 M83.1875,6 C83.8854,6 84.4141,6.16927 84.7734,6.50781 C85.1328,6.84635 85.3125,7.39583 85.3125,8.15625 L85.3125,12 L84.3594,12 L84.3594,8.21875 C84.3594,7.28125 83.9167,6.8125 83.0313,6.8125 C82.3854,6.8125 81.9375,6.99479 81.6875,7.35938 C81.4375,7.72396 81.3125,8.25 81.3125,8.9375 L81.3125,12 L80.3438,12 L80.3438,6.10938 L81.125,6.10938 L81.2656,6.90625 L81.3281,6.90625 C81.5156,6.59375 81.7786,6.36458 82.1172,6.21875 C82.4557,6.07292 82.8125,6 83.1875,6 M92.2656,9.04688 C92.2656,10.0156 92.0182,10.7682 91.5234,11.3047 C91.0286,11.8411 90.3594,12.1094 89.5156,12.1094 C88.9948,12.1094 88.5313,11.9896 88.125,11.75 C87.7188,11.5104 87.3984,11.1615 87.1641,10.7031 C86.9297,10.2448 86.8125,9.69271 86.8125,9.04688 C86.8125,8.06771 87.0573,7.3151 87.5469,6.78906 C88.0365,6.26302 88.7031,6 89.5469,6 C90.0781,6 90.5495,6.11719 90.9609,6.35156 C91.3724,6.58594 91.6927,6.92969 91.9219,7.38281 C92.151,7.83594 92.2656,8.39063 92.2656,9.04688 M87.8125,9.04688 C87.8125,9.73438 87.9505,10.2839 88.2266,10.6953 C88.5026,11.1068 88.9375,11.3125 89.5313,11.3125 C90.125,11.3125 90.5625,11.1068 90.8438,10.6953 C91.125,10.2839 91.2656,9.73438 91.2656,9.04688 C91.2656,8.34896 91.125,7.80208 90.8438,7.40625 C90.5625,7.01042 90.125,6.8125 89.5313,6.8125 C88.9271,6.8125 88.4896,7.01042 88.2188,7.40625 C87.9479,7.80208 87.8125,8.34896 87.8125,9.04688 M95.875,12.1094 C95.1354,12.1094 94.5469,11.8542 94.1094,11.3438 C93.6719,10.8333 93.4531,10.0729 93.4531,9.0625 C93.4531,8.05208 93.6745,7.28906 94.1172,6.77344 C94.5599,6.25781 95.1458,6 95.875,6 C96.3333,6 96.7083,6.08333 97,6.25 C97.2917,6.41667 97.526,6.61979 97.7031,6.85938 L97.7656,6.85938 C97.7656,6.76563 97.7552,6.625 97.7344,6.4375 C97.7135,6.25 97.7031,6.10417 97.7031,6 L97.7031,3.64063 L98.6719,3.64063 L98.6719,12 L97.8906,12 L97.75,11.2031 L97.7031,11.2031 C97.526,11.4531 97.2917,11.6667 97,11.8438 C96.7083,12.0208 96.3333,12.1094 95.875,12.1094 M96.0156,11.3125 C96.6406,11.3125 97.0807,11.1406 97.3359,10.7969 C97.5911,10.4531 97.7188,9.9375 97.7188,9.25 L97.7188,9.07813 C97.7188,8.33854 97.5964,7.77344 97.3516,7.38281 C97.1068,6.99219 96.6615,6.79688 96.0156,6.79688 C95.4948,6.79688 95.1042,7.00521 94.8438,7.42188 C94.5833,7.83854 94.4531,8.39063 94.4531,9.07813 C94.4531,9.78646 94.5833,10.3359 94.8438,10.7266 C95.1042,11.1172 95.4948,11.3125 96.0156,11.3125 M102.813,6 C103.313,6 103.745,6.10938 104.109,6.32813 C104.474,6.54688 104.753,6.85677 104.945,7.25781 C105.138,7.65885 105.234,8.125 105.234,8.65625 L105.234,9.23438 L101.203,9.23438 C101.214,9.90104 101.383,10.4089 101.711,10.7578 C102.039,11.1068 102.495,11.2813 103.078,11.2813 C103.453,11.2813 103.786,11.2474 104.078,11.1797 C104.37,11.112 104.667,11.0104 104.969,10.875 L104.969,11.7188 C104.667,11.8542 104.37,11.9531 104.078,12.0156 C103.786,12.0781 103.438,12.1094 103.031,12.1094 C102.479,12.1094 101.987,11.9948 101.555,11.7656 C101.122,11.5365 100.789,11.1979 100.555,10.75 C100.32,10.3021 100.203,9.75 100.203,9.09375 C100.203,8.44792 100.31,7.89323 100.523,7.42969 C100.737,6.96615 101.042,6.61198 101.438,6.36719 C101.833,6.1224 102.292,6 102.813,6 M102.797,6.78125 C102.339,6.78125 101.974,6.92969 101.703,7.22656 C101.432,7.52344 101.271,7.9375 101.219,8.46875 L104.219,8.46875 C104.219,7.96875 104.104,7.5625 103.875,7.25 C103.646,6.9375 103.286,6.78125 102.797,6.78125 "/>
</g>

<g fill="none" stroke="#000000" stroke-opacity="1" stroke-width="1" stroke-linecap="square" stroke-linejoin="bevel" transform="matrix(2,0,0,2,99.5831,20)"
font-family="sans" font-size="11" font-weight="100" font-style="normal" 
>
</g>

<g fill="none" stroke="#000000" stroke-opacity="1" stroke-width="1" stroke-linecap="square" stroke-linejoin="bevel" transform="matrix(2,0,0,2,99.5831,20)"
font-family="Ubuntu Sans" font-size="11" font-weight="400" font-style="normal" 
>
</g>

<g fill="none" stroke="#000000" stroke-opacity="1" stroke-width="1" stroke-linecap="square" stroke-linejoin="bevel" transform="matrix(2,0,0,2,6.78565e-17,72)"
font-family="Ubuntu Sans" font-size="11" font-weight="400" font-style="normal" 
>
</g>

<g fill="none" stroke="#000000" stroke-opacity="1" stroke-width="1" stroke-linecap="square" stroke-linejoin="bevel" transform="matrix(2,0,0,2,6.78565e-17,72)"
font-family="Ubuntu Sans" font-size="11" font-weight="400" font-style="normal" 
>
</g>

<g fill="none" stroke="#000000" stroke-opacity="1" stroke-width="1" stroke-linecap="square" stroke-linejoin="bevel" transform="matrix(2,0,0,2,6.78565e-17,72)"
font-family="Ubuntu Sans" font-size="11" font-weight="400" font-style="normal" 
>
</g>

<g fill="none" stroke="#000000" stroke-opacity="1" stroke-width="1" stroke-linecap="square" stroke-linejoin="round" transform="matrix(2,0,0,2,6.78565e-17,72)"
font-family="Ubuntu Sans" font-size="11" font-weight="400" font-style="normal" 
>
<ellipse cx="407.58" cy="-18" rx="43.6972" ry="17.5"/>
</g>

<g fill="none" stroke="#000000" stroke-opacity="1" stroke-width="1" stroke-linecap="square" stroke-linejoin="bevel" transform="matrix(2,0,0,2,6.78565e-17,72)"
font-family="Ubuntu Sans" font-size="11" font-weight="400" font-style="normal" 
>
</g>

<g fill="none" stroke="#000000" stroke-opacity="1" stroke-width="1" stroke-linecap="square" stroke-linejoin="bevel" transform="matrix(2,0,0,2,776.347,20)"
font-family="Ubuntu Sans" font-size="11" font-weight="400" font-style="normal" 
>
</g>

<g fill="none" stroke="#000000" stroke-opacity="1" stroke-width="1" stroke-linecap="square" stroke-linejoin="bevel" transform="matrix(2,0,0,2,776.347,20)"
font-family="sans" font-size="11" font-weight="100" font-style="normal" 
>
</g>

<g fill="#000000" fill-opacity="1" stroke="#000000" stroke-opacity="1" stroke-width="1" stroke-linecap="square" stroke-linejoin="round" transform="matrix(2,0,0,2,776.347,20)"
font-family="sans" font-size="11" font-weight="100" font-style="normal" 
>
<path vector-effect="none" fill-rule="nonzero" d="M3.98438,4.14063 L1.0625,12 L0.109375,12 L3.03125,4.14063 L3.98438,4.14063 M5.96875,8 C5.96875,8.125 5.96354,8.28125 5.95313,8.46875 C5.94271,8.65625 5.93229,8.82292 5.92188,8.96875 L5.96875,8.96875 C6.01042,8.90625 6.07552,8.82031 6.16406,8.71094 C6.2526,8.60156 6.34375,8.48958 6.4375,8.375 C6.53125,8.26042 6.60938,8.16667 6.67188,8.09375 L8.5625,6.10938 L9.6875,6.10938 L7.29688,8.625 L9.85938,12 L8.6875,12 L6.64063,9.25 L5.96875,9.82813 L5.96875,12 L5.01563,12 L5.01563,3.64063 L5.96875,3.64063 L5.96875,8 M16,9.04688 C16,10.0156 15.7526,10.7682 15.2578,11.3047 C14.763,11.8411 14.0938,12.1094 13.25,12.1094 C12.7292,12.1094 12.2656,11.9896 11.8594,11.75 C11.4531,11.5104 11.1328,11.1615 10.8984,10.7031 C10.6641,10.2448 10.5469,9.69271 10.5469,9.04688 C10.5469,8.06771 10.7917,7.3151 11.2813,6.78906 C11.7708,6.26302 12.4375,6 13.2813,6 C13.8125,6 14.2839,6.11719 14.6953,6.35156 C15.1068,6.58594 15.4271,6.92969 15.6563,7.38281 C15.8854,7.83594 16,8.39063 16,9.04688 M11.5469,9.04688 C11.5469,9.73438 11.6849,10.2839 11.9609,10.6953 C12.237,11.1068 12.6719,11.3125 13.2656,11.3125 C13.8594,11.3125 14.2969,11.1068 14.5781,10.6953 C14.8594,10.2839 15,9.73438 15,9.04688 C15,8.34896 14.8594,7.80208 14.5781,7.40625 C14.2969,7.01042 13.8594,6.8125 13.2656,6.8125 C12.6615,6.8125 12.224,7.01042 11.9531,7.40625 C11.6823,7.80208 11.5469,8.34896 11.5469,9.04688 M18.4844,5.67188 C18.4844,5.92188 18.4792,6.15625 18.4688,6.375 C18.4583,6.59375 18.4427,6.76563 18.4219,6.89063 L18.4844,6.89063 C18.651,6.64063 18.8802,6.42969 19.1719,6.25781 C19.4635,6.08594 19.8438,6 20.3125,6 C21.0417,6 21.6276,6.25521 22.0703,6.76563 C22.513,7.27604 22.7344,8.03646 22.7344,9.04688 C22.7344,10.0573 22.5104,10.8203 22.0625,11.3359 C21.6146,11.8516 21.0313,12.1094 20.3125,12.1094 C19.8438,12.1094 19.4635,12.026 19.1719,11.8594 C18.8802,11.6927 18.651,11.4896 18.4844,11.25 L18.4063,11.25 L18.2031,12 L17.5156,12 L17.5156,3.64063 L18.4844,3.64063 L18.4844,5.67188 M20.1406,6.8125 C19.5156,6.8125 19.0833,6.99219 18.8438,7.35156 C18.6042,7.71094 18.4844,8.26563 18.4844,9.01563 L18.4844,9.0625 C18.4844,9.79167 18.6042,10.349 18.8438,10.7344 C19.0833,11.1198 19.526,11.3125 20.1719,11.3125 C20.6927,11.3125 21.0833,11.1172 21.3438,10.7266 C21.6042,10.3359 21.7344,9.77604 21.7344,9.04688 C21.7344,7.55729 21.2031,6.8125 20.1406,6.8125 M29.1875,6.10938 L29.1875,12 L28.4063,12 L28.25,11.2188 L28.2188,11.2188 C28.0208,11.5313 27.7552,11.7578 27.4219,11.8984 C27.0885,12.0391 26.7292,12.1094 26.3438,12.1094 C25.6354,12.1094 25.1016,11.9401 24.7422,11.6016 C24.3828,11.263 24.2031,10.7188 24.2031,9.96875 L24.2031,6.10938 L25.1719,6.10938 L25.1719,9.90625 C25.1719,10.8438 25.6094,11.3125 26.4844,11.3125 C27.1406,11.3125 27.5938,11.1276 27.8438,10.7578 C28.0938,10.388 28.2188,9.85938 28.2188,9.17188 L28.2188,6.10938 L29.1875,6.10938 M32.0156,8 C32.0156,8.125 32.0104,8.28125 32,8.46875 C31.9896,8.65625 31.9792,8.82292 31.9688,8.96875 L32.0156,8.96875 C32.0573,8.90625 32.1224,8.82031 32.2109,8.71094 C32.2995,8.60156 32.3906,8.48958 32.4844,8.375 C32.5781,8.26042 32.6563,8.16667 32.7188,8.09375 L34.6094,6.10938 L35.7344,6.10938 L33.3438,8.625 L35.9063,12 L34.7344,12 L32.6875,9.25 L32.0156,9.82813 L32.0156,12 L31.0625,12 L31.0625,3.64063 L32.0156,3.64063 L32.0156,8 M37.4219,3.89063 C37.5677,3.89063 37.6953,3.9401 37.8047,4.03906 C37.9141,4.13802 37.9688,4.29688 37.9688,4.51563 C37.9688,4.71354 37.9141,4.86458 37.8047,4.96875 C37.6953,5.07292 37.5677,5.125 37.4219,5.125 C37.2552,5.125 37.1172,5.07292 37.0078,4.96875 C36.8984,4.86458 36.8438,4.71354 36.8438,4.51563 C36.8438,4.29688 36.8984,4.13802 37.0078,4.03906 C37.1172,3.9401 37.2552,3.89063 37.4219,3.89063 M37.8906,6.10938 L37.8906,12 L36.9219,12 L36.9219,6.10938 L37.8906,6.10938"/>
</g>

<g fill="none" stroke="#000000" stroke-opacity="1" stroke-width="1" stroke-linecap="square" stroke-linejoin="bevel" transform="matrix(2,0,0,2,776.347,20)"
font-family="sans" font-size="11" font-weight="100" font-style="normal" 
>
</g>

<g fill="none" stroke="#000000" stroke-opacity="1" stroke-width="1" stroke-linecap="square" stroke-linejoin="bevel" transform="matrix(2,0,0,2,776.347,20)"
font-family="Ubuntu Sans" font-size="11" font-weight="400" font-style="normal" 
>
</g>

<g fill="none" stroke="#000000" stroke-opacity="1" stroke-width="1" stroke-linecap="square" stroke-linejoin="bevel" transform="matrix(2,0,0,2,6.78565e-17,72)"
font-family="Ubuntu Sans" font-size="11" font-weight="400" font-style="normal" 
>
</g>

<g fill="none" stroke="#000000" stroke-opacity="1" stroke-width="1" stroke-linecap="square" stroke-linejoin="bevel" transform="matrix(2,0,0,2,6.78565e-17,72)"
font-family="Ubuntu Sans" font-size="11" font-weight="400" font-style="normal" 
>
</g>

<g fill="none" stroke="#000000" stroke-opacity="1" stroke-width="1" stroke-linecap="square" stroke-linejoin="bevel" transform="matrix(2,0,0,2,6.78565e-17,72)"
font-family="Ubuntu Sans" font-size="11" font-weight="400" font-style="normal" 
>
</g>

<g fill="none" stroke="#000000" stroke-opacity="1" stroke-width="1" stroke-linecap="square" stroke-linejoin="round" transform="matrix(2,0,0,2,6.78565e-17,72)"
font-family="Ubuntu Sans" font-size="11" font-weight="400" font-style="normal" 
>
<path vector-effect="none" fill-rule="evenodd" d="M205.39,-18 C254.82,-18 312.21,-18 353.01,-18 "/>
</g>

<g fill="none" stroke="#000000" stroke-opacity="1" stroke-width="1" stroke-linecap="square" stroke-linejoin="bevel" transform="matrix(2,0,0,2,6.78565e-17,72)"
font-family="Ubuntu Sans" font-size="11" font-weight="400" font-style="normal" 
>
</g>

<g fill="none" stroke="#000000" stroke-opacity="1" stroke-width="1" stroke-linecap="square" stroke-linejoin="bevel" transform="matrix(2,0,0,2,464.244,5)"
font-family="Ubuntu Sans" font-size="11" font-weight="400" font-style="normal" 
>
</g>

<g fill="none" stroke="#000000" stroke-opacity="1" stroke-width="1" stroke-linecap="square" stroke-linejoin="bevel" transform="matrix(2,0,0,2,464.244,5)"
font-family="sans" font-size="11" font-weight="100" font-style="normal" 
>
</g>

<g fill="#000000" fill-opacity="1" stroke="#000000" stroke-opacity="1" stroke-width="1" stroke-linecap="square" stroke-linejoin="round" transform="matrix(2,0,0,2,464.244,5)"
font-family="sans" font-size="11" font-weight="100" font-style="normal" 
>
<path vector-effect="none" fill-rule="nonzero" d="M3.98438,4.14063 L1.0625,12 L0.109375,12 L3.03125,4.14063 L3.98438,4.14063 M7.375,12.1094 C6.85417,12.1094 6.39063,12.0026 5.98438,11.7891 C5.57813,11.5755 5.26042,11.2448 5.03125,10.7969 C4.80208,10.349 4.6875,9.77604 4.6875,9.07813 C4.6875,8.35938 4.80729,7.77083 5.04688,7.3125 C5.28646,6.85417 5.61458,6.52083 6.03125,6.3125 C6.44792,6.10417 6.91667,6 7.4375,6 C7.73958,6 8.03125,6.03125 8.3125,6.09375 C8.59375,6.15625 8.82292,6.22917 9,6.3125 L8.70313,7.10938 C8.52604,7.04688 8.32031,6.98698 8.08594,6.92969 C7.85156,6.8724 7.63021,6.84375 7.42188,6.84375 C6.26563,6.84375 5.6875,7.58854 5.6875,9.07813 C5.6875,9.78646 5.82813,10.3307 6.10938,10.7109 C6.39063,11.0911 6.8125,11.2813 7.375,11.2813 C7.69792,11.2813 7.98177,11.2474 8.22656,11.1797 C8.47135,11.112 8.69271,11.0313 8.89063,10.9375 L8.89063,11.7969 C8.69271,11.8906 8.47656,11.9661 8.24219,12.0234 C8.00781,12.0807 7.71875,12.1094 7.375,12.1094 M15.4063,9.04688 C15.4063,10.0156 15.1589,10.7682 14.6641,11.3047 C14.1693,11.8411 13.5,12.1094 12.6563,12.1094 C12.1354,12.1094 11.6719,11.9896 11.2656,11.75 C10.8594,11.5104 10.5391,11.1615 10.3047,10.7031 C10.0703,10.2448 9.95313,9.69271 9.95313,9.04688 C9.95313,8.06771 10.1979,7.3151 10.6875,6.78906 C11.1771,6.26302 11.8438,6 12.6875,6 C13.2188,6 13.6901,6.11719 14.1016,6.35156 C14.513,6.58594 14.8333,6.92969 15.0625,7.38281 C15.2917,7.83594 15.4063,8.39063 15.4063,9.04688 M10.9531,9.04688 C10.9531,9.73438 11.0911,10.2839 11.3672,10.6953 C11.6432,11.1068 12.0781,11.3125 12.6719,11.3125 C13.2656,11.3125 13.7031,11.1068 13.9844,10.6953 C14.2656,10.2839 14.4063,9.73438 14.4063,9.04688 C14.4063,8.34896 14.2656,7.80208 13.9844,7.40625 C13.7031,7.01042 13.2656,6.8125 12.6719,6.8125 C12.0677,6.8125 11.6302,7.01042 11.3594,7.40625 C11.0885,7.80208 10.9531,8.34896 10.9531,9.04688 M23.3906,6 C24.0573,6 24.5547,6.16927 24.8828,6.50781 C25.2109,6.84635 25.375,7.39583 25.375,8.15625 L25.375,12 L24.4219,12 L24.4219,8.20313 C24.4219,7.27604 24.0208,6.8125 23.2188,6.8125 C22.6458,6.8125 22.237,6.97656 21.9922,7.30469 C21.7474,7.63281 21.625,8.11458 21.625,8.75 L21.625,12 L20.6719,12 L20.6719,8.20313 C20.6719,7.27604 20.2656,6.8125 19.4531,6.8125 C18.8594,6.8125 18.4505,6.99479 18.2266,7.35938 C18.0026,7.72396 17.8906,8.25 17.8906,8.9375 L17.8906,12 L16.9219,12 L16.9219,6.10938 L17.7031,6.10938 L17.8438,6.90625 L17.9063,6.90625 C18.0833,6.59375 18.3281,6.36458 18.6406,6.21875 C18.9531,6.07292 19.2865,6 19.6406,6 C20.5573,6 21.1563,6.32813 21.4375,6.98438 L21.5,6.98438 C21.6979,6.65104 21.9661,6.40365 22.3047,6.24219 C22.6432,6.08073 23.0052,6 23.3906,6 M33.6719,6 C34.3385,6 34.8359,6.16927 35.1641,6.50781 C35.4922,6.84635 35.6563,7.39583 35.6563,8.15625 L35.6563,12 L34.7031,12 L34.7031,8.20313 C34.7031,7.27604 34.3021,6.8125 33.5,6.8125 C32.9271,6.8125 32.5182,6.97656 32.2734,7.30469 C32.0286,7.63281 31.9063,8.11458 31.9063,8.75 L31.9063,12 L30.9531,12 L30.9531,8.20313 C30.9531,7.27604 30.5469,6.8125 29.7344,6.8125 C29.1406,6.8125 28.7318,6.99479 28.5078,7.35938 C28.2839,7.72396 28.1719,8.25 28.1719,8.9375 L28.1719,12 L27.2031,12 L27.2031,6.10938 L27.9844,6.10938 L28.125,6.90625 L28.1875,6.90625 C28.3646,6.59375 28.6094,6.36458 28.9219,6.21875 C29.2344,6.07292 29.5677,6 29.9219,6 C30.8385,6 31.4375,6.32813 31.7188,6.98438 L31.7813,6.98438 C31.9792,6.65104 32.2474,6.40365 32.5859,6.24219 C32.9245,6.08073 33.2865,6 33.6719,6 M39.7188,6 C40.4375,6 40.9688,6.15885 41.3125,6.47656 C41.6563,6.79427 41.8281,7.29688 41.8281,7.98438 L41.8281,12 L41.125,12 L40.9375,11.1563 L40.8906,11.1563 C40.6302,11.4792 40.3594,11.7188 40.0781,11.875 C39.7969,12.0313 39.4063,12.1094 38.9063,12.1094 C38.375,12.1094 37.9323,11.9688 37.5781,11.6875 C37.224,11.4063 37.0469,10.9635 37.0469,10.3594 C37.0469,9.77604 37.2786,9.32552 37.7422,9.00781 C38.2057,8.6901 38.9167,8.51563 39.875,8.48438 L40.875,8.45313 L40.875,8.09375 C40.875,7.60417 40.7708,7.26302 40.5625,7.07031 C40.3542,6.8776 40.0521,6.78125 39.6563,6.78125 C39.3542,6.78125 39.0625,6.82813 38.7813,6.92188 C38.5,7.01563 38.2396,7.11979 38,7.23438 L37.7031,6.51563 C37.9635,6.36979 38.2682,6.2474 38.6172,6.14844 C38.9661,6.04948 39.3333,6 39.7188,6 M40,9.15625 C39.2708,9.17708 38.763,9.29167 38.4766,9.5 C38.1901,9.70833 38.0469,10 38.0469,10.375 C38.0469,10.6979 38.1484,10.9375 38.3516,11.0938 C38.5547,11.25 38.8125,11.3281 39.125,11.3281 C39.625,11.3281 40.0417,11.1901 40.375,10.9141 C40.7083,10.638 40.875,10.2135 40.875,9.64063 L40.875,9.125 L40,9.15625 M46.4844,6 C47.1823,6 47.7109,6.16927 48.0703,6.50781 C48.4297,6.84635 48.6094,7.39583 48.6094,8.15625 L48.6094,12 L47.6563,12 L47.6563,8.21875 C47.6563,7.28125 47.2135,6.8125 46.3281,6.8125 C45.6823,6.8125 45.2344,6.99479 44.9844,7.35938 C44.7344,7.72396 44.6094,8.25 44.6094,8.9375 L44.6094,12 L43.6406,12 L43.6406,6.10938 L44.4219,6.10938 L44.5625,6.90625 L44.625,6.90625 C44.8125,6.59375 45.0755,6.36458 45.4141,6.21875 C45.7526,6.07292 46.1094,6 46.4844,6 M52.5313,12.1094 C51.7917,12.1094 51.2031,11.8542 50.7656,11.3438 C50.3281,10.8333 50.1094,10.0729 50.1094,9.0625 C50.1094,8.05208 50.3307,7.28906 50.7734,6.77344 C51.2161,6.25781 51.8021,6 52.5313,6 C52.9896,6 53.3646,6.08333 53.6563,6.25 C53.9479,6.41667 54.1823,6.61979 54.3594,6.85938 L54.4219,6.85938 C54.4219,6.76563 54.4115,6.625 54.3906,6.4375 C54.3698,6.25 54.3594,6.10417 54.3594,6 L54.3594,3.64063 L55.3281,3.64063 L55.3281,12 L54.5469,12 L54.4063,11.2031 L54.3594,11.2031 C54.1823,11.4531 53.9479,11.6667 53.6563,11.8438 C53.3646,12.0208 52.9896,12.1094 52.5313,12.1094 M52.6719,11.3125 C53.2969,11.3125 53.737,11.1406 53.9922,10.7969 C54.2474,10.4531 54.375,9.9375 54.375,9.25 L54.375,9.07813 C54.375,8.33854 54.2526,7.77344 54.0078,7.38281 C53.763,6.99219 53.3177,6.79688 52.6719,6.79688 C52.151,6.79688 51.7604,7.00521 51.5,7.42188 C51.2396,7.83854 51.1094,8.39063 51.1094,9.07813 C51.1094,9.78646 51.2396,10.3359 51.5,10.7266 C51.7604,11.1172 52.151,11.3125 52.6719,11.3125 M61.0313,10.375 C61.0313,10.9479 60.8177,11.3802 60.3906,11.6719 C59.9635,11.9635 59.3906,12.1094 58.6719,12.1094 C58.2552,12.1094 57.8984,12.0755 57.6016,12.0078 C57.3047,11.9401 57.0469,11.849 56.8281,11.7344 L56.8281,10.8594 C57.0573,10.974 57.3385,11.0807 57.6719,11.1797 C58.0052,11.2786 58.3438,11.3281 58.6875,11.3281 C59.1771,11.3281 59.5339,11.25 59.7578,11.0938 C59.9818,10.9375 60.0938,10.724 60.0938,10.4531 C60.0938,10.3073 60.0521,10.1771 59.9688,10.0625 C59.8854,9.94792 59.7396,9.83073 59.5313,9.71094 C59.3229,9.59115 59.026,9.45833 58.6406,9.3125 C58.2552,9.16667 57.9271,9.02083 57.6563,8.875 C57.3854,8.72917 57.1771,8.55469 57.0313,8.35156 C56.8854,8.14844 56.8125,7.88542 56.8125,7.5625 C56.8125,7.0625 57.0156,6.67708 57.4219,6.40625 C57.8281,6.13542 58.3594,6 59.0156,6 C59.3802,6 59.7188,6.03385 60.0313,6.10156 C60.3438,6.16927 60.6354,6.26563 60.9063,6.39063 L60.5781,7.15625 C60.3281,7.05208 60.0677,6.96354 59.7969,6.89063 C59.526,6.81771 59.2448,6.78125 58.9531,6.78125 C58.5573,6.78125 58.2552,6.84635 58.0469,6.97656 C57.8385,7.10677 57.7344,7.28125 57.7344,7.5 C57.7344,7.66667 57.7813,7.80469 57.875,7.91406 C57.9688,8.02344 58.1276,8.13281 58.3516,8.24219 C58.5755,8.35156 58.875,8.47917 59.25,8.625 C59.625,8.76042 59.9453,8.90104 60.2109,9.04688 C60.4766,9.19271 60.6797,9.3724 60.8203,9.58594 C60.9609,9.79948 61.0313,10.0625 61.0313,10.375 M65.5,4.14063 L62.5781,12 L61.625,12 L64.5469,4.14063 L65.5,4.14063 M67.8281,12 L65.5938,6.10938 L66.625,6.10938 L67.875,9.57813 C67.9375,9.74479 68.0026,9.92708 68.0703,10.125 C68.138,10.3229 68.1979,10.5104 68.25,10.6875 C68.3021,10.8646 68.3385,11.0156 68.3594,11.1406 L68.4063,11.1406 C68.4271,11.0156 68.4661,10.862 68.5234,10.6797 C68.5807,10.4974 68.6432,10.3073 68.7109,10.1094 C68.7786,9.91146 68.8385,9.73438 68.8906,9.57813 L70.1406,6.10938 L71.1875,6.10938 L68.9375,12 L67.8281,12 M74.3906,6 C74.8906,6 75.3229,6.10938 75.6875,6.32813 C76.0521,6.54688 76.3307,6.85677 76.5234,7.25781 C76.7161,7.65885 76.8125,8.125 76.8125,8.65625 L76.8125,9.23438 L72.7813,9.23438 C72.7917,9.90104 72.9609,10.4089 73.2891,10.7578 C73.6172,11.1068 74.0729,11.2813 74.6563,11.2813 C75.0313,11.2813 75.3646,11.2474 75.6563,11.1797 C75.9479,11.112 76.2448,11.0104 76.5469,10.875 L76.5469,11.7188 C76.2448,11.8542 75.9479,11.9531 75.6563,12.0156 C75.3646,12.0781 75.0156,12.1094 74.6094,12.1094 C74.0573,12.1094 73.5651,11.9948 73.1328,11.7656 C72.7005,11.5365 72.3672,11.1979 72.1328,10.75 C71.8984,10.3021 71.7813,9.75 71.7813,9.09375 C71.7813,8.44792 71.888,7.89323 72.1016,7.42969 C72.3151,6.96615 72.6198,6.61198 73.0156,6.36719 C73.4115,6.1224 73.8698,6 74.3906,6 M74.375,6.78125 C73.9167,6.78125 73.5521,6.92969 73.2813,7.22656 C73.0104,7.52344 72.849,7.9375 72.7969,8.46875 L75.7969,8.46875 C75.7969,7.96875 75.6823,7.5625 75.4531,7.25 C75.224,6.9375 74.8646,6.78125 74.375,6.78125 M79.2813,12 L78.3125,12 L78.3125,3.64063 L79.2813,3.64063 L79.2813,12 M86.2656,9.04688 C86.2656,10.0156 86.0182,10.7682 85.5234,11.3047 C85.0286,11.8411 84.3594,12.1094 83.5156,12.1094 C82.9948,12.1094 82.5313,11.9896 82.125,11.75 C81.7188,11.5104 81.3984,11.1615 81.1641,10.7031 C80.9297,10.2448 80.8125,9.69271 80.8125,9.04688 C80.8125,8.06771 81.0573,7.3151 81.5469,6.78906 C82.0365,6.26302 82.7031,6 83.5469,6 C84.0781,6 84.5495,6.11719 84.9609,6.35156 C85.3724,6.58594 85.6927,6.92969 85.9219,7.38281 C86.151,7.83594 86.2656,8.39063 86.2656,9.04688 M81.8125,9.04688 C81.8125,9.73438 81.9505,10.2839 82.2266,10.6953 C82.5026,11.1068 82.9375,11.3125 83.5313,11.3125 C84.125,11.3125 84.5625,11.1068 84.8438,10.6953 C85.125,10.2839 85.2656,9.73438 85.2656,9.04688 C85.2656,8.34896 85.125,7.80208 84.8438,7.40625 C84.5625,7.01042 84.125,6.8125 83.5313,6.8125 C82.9271,6.8125 82.4896,7.01042 82.2188,7.40625 C81.9479,7.80208 81.8125,8.34896 81.8125,9.04688 M90.1406,12.1094 C89.6198,12.1094 89.1563,12.0026 88.75,11.7891 C88.3438,11.5755 88.026,11.2448 87.7969,10.7969 C87.5677,10.349 87.4531,9.77604 87.4531,9.07813 C87.4531,8.35938 87.5729,7.77083 87.8125,7.3125 C88.0521,6.85417 88.3802,6.52083 88.7969,6.3125 C89.2135,6.10417 89.6823,6 90.2031,6 C90.5052,6 90.7969,6.03125 91.0781,6.09375 C91.3594,6.15625 91.5885,6.22917 91.7656,6.3125 L91.4688,7.10938 C91.2917,7.04688 91.0859,6.98698 90.8516,6.92969 C90.6172,6.8724 90.3958,6.84375 90.1875,6.84375 C89.0313,6.84375 88.4531,7.58854 88.4531,9.07813 C88.4531,9.78646 88.5938,10.3307 88.875,10.7109 C89.1563,11.0911 89.5781,11.2813 90.1406,11.2813 C90.4635,11.2813 90.7474,11.2474 90.9922,11.1797 C91.237,11.112 91.4583,11.0313 91.6563,10.9375 L91.6563,11.7969 C91.4583,11.8906 91.2422,11.9661 91.0078,12.0234 C90.7734,12.0807 90.4844,12.1094 90.1406,12.1094 M93.5469,3.89063 C93.6927,3.89063 93.8203,3.9401 93.9297,4.03906 C94.0391,4.13802 94.0938,4.29688 94.0938,4.51563 C94.0938,4.71354 94.0391,4.86458 93.9297,4.96875 C93.8203,5.07292 93.6927,5.125 93.5469,5.125 C93.3802,5.125 93.2422,5.07292 93.1328,4.96875 C93.0234,4.86458 92.9688,4.71354 92.9688,4.51563 C92.9688,4.29688 93.0234,4.13802 93.1328,4.03906 C93.2422,3.9401 93.3802,3.89063 93.5469,3.89063 M94.0156,6.10938 L94.0156,12 L93.0469,12 L93.0469,6.10938 L94.0156,6.10938 M97.8438,11.3125 C97.9896,11.3125 98.1406,11.2995 98.2969,11.2734 C98.4531,11.2474 98.5781,11.224 98.6719,11.2031 L98.6719,11.9375 C98.5677,11.9896 98.4193,12.0313 98.2266,12.0625 C98.0339,12.0938 97.849,12.1094 97.6719,12.1094 C97.3698,12.1094 97.0885,12.0573 96.8281,11.9531 C96.5677,11.849 96.3568,11.6641 96.1953,11.3984 C96.0339,11.1328 95.9531,10.7604 95.9531,10.2813 L95.9531,6.84375 L95.1094,6.84375 L95.1094,6.39063 L95.9531,6 L96.3438,4.75 L96.9219,4.75 L96.9219,6.10938 L98.625,6.10938 L98.625,6.84375 L96.9219,6.84375 L96.9219,10.2656 C96.9219,10.6198 97.0078,10.8828 97.1797,11.0547 C97.3516,11.2266 97.5729,11.3125 97.8438,11.3125 M98.9219,6.10938 L99.9531,6.10938 L101.234,9.45313 C101.339,9.75521 101.435,10.0391 101.523,10.3047 C101.612,10.5703 101.677,10.8229 101.719,11.0625 L101.766,11.0625 C101.807,10.8854 101.878,10.6484 101.977,10.3516 C102.076,10.0547 102.172,9.75521 102.266,9.45313 L103.469,6.10938 L104.516,6.10938 L101.969,12.8125 C101.771,13.375 101.508,13.8203 101.18,14.1484 C100.852,14.4766 100.401,14.6406 99.8281,14.6406 C99.651,14.6406 99.4974,14.6302 99.3672,14.6094 C99.237,14.5885 99.125,14.5677 99.0313,14.5469 L99.0313,13.7813 C99.1042,13.7917 99.1979,13.8047 99.3125,13.8203 C99.4271,13.8359 99.5469,13.8438 99.6719,13.8438 C100.016,13.8438 100.292,13.75 100.5,13.5625 C100.708,13.375 100.87,13.1198 100.984,12.7969 L101.297,12.0156 L98.9219,6.10938"/>
</g>

<g fill="none" stroke="#000000" stroke-opacity="1" stroke-width="1" stroke-linecap="square" stroke-linejoin="bevel" transform="matrix(2,0,0,2,464.244,5)"
font-family="sans" font-size="11" font-weight="100" font-style="normal" 
>
</g>

<g fill="none" stroke="#000000" stroke-opacity="1" stroke-width="1" stroke-linecap="square" stroke-linejoin="bevel" transform="matrix(2,0,0,2,464.244,5)"
font-family="Ubuntu Sans" font-size="11" font-weight="400" font-style="normal" 
>
</g>

<g fill="none" stroke="#000000" stroke-opacity="1" stroke-width="1" stroke-linecap="square" stroke-linejoin="bevel" transform="matrix(2,0,0,2,6.78565e-17,72)"
font-family="Ubuntu Sans" font-size="11" font-weight="400" font-style="normal" 
>
</g>

<g fill="#000000" fill-opacity="1" stroke="#000000" stroke-opacity="1" stroke-width="1" stroke-linecap="square" stroke-linejoin="round" transform="matrix(2,0,0,2,6.78565e-17,72)"
font-family="Ubuntu Sans" font-size="11" font-weight="400" font-style="normal" 
>
<path vector-effect="none" fill-rule="evenodd" d="M353.01,-18 L353.01,-14.5 L363.01,-18 L353.01,-21.5 L353.01,-18"/>
</g>

<g fill="none" stroke="#000000" stroke-opacity="1" stroke-width="1" stroke-linecap="square" stroke-linejoin="bevel" transform="matrix(2,0,0,2,6.78565e-17,72)"
font-family="Ubuntu Sans" font-size="11" font-weight="400" font-style="normal" 
>
</g>

<g fill="none" stroke="#000000" stroke-opacity="1" stroke-width="1" stroke-linecap="square" stroke-linejoin="bevel" transform="matrix(1,0,0,1,0,0)"
font-family="Ubuntu Sans" font-size="11" font-weight="400" font-style="normal" 
>
</g>
</g>
</svg>
